<svg xmlns="http://www.w3.org/2000/svg" xmlns:xlink="http://www.w3.org/1999/xlink" width="500" zoomAndPan="magnify" viewBox="0 0 375 374.999991" height="500" preserveAspectRatio="xMidYMid meet" version="1.0"><defs><clipPath id="e8bfdebae7"><path d="M 90.726562 37.988281 L 284.226562 37.988281 L 284.226562 337.238281 L 90.726562 337.238281 Z M 90.726562 37.988281 " clip-rule="nonzero"/></clipPath></defs><g clip-path="url(#e8bfdebae7)"><path fill="#f05a2c" d="M 169.105469 136.488281 C 169.105469 149.816406 179.90625 160.628906 193.21875 160.628906 L 197.566406 160.628906 C 234.105469 160.628906 263.714844 190.28125 263.714844 226.847656 C 211.460938 226.847656 169.105469 269.242188 169.105469 321.554688 L 169.105469 337.273438 C 125.945312 337.273438 90.945312 302.238281 90.945312 259.023438 L 90.945312 116.226562 C 90.945312 73.023438 125.945312 37.988281 169.105469 37.988281 L 209.753906 37.988281 C 250.78125 37.988281 284.039062 71.28125 284.039062 112.351562 L 193.21875 112.351562 C 179.90625 112.351562 169.105469 123.152344 169.105469 136.488281 Z M 169.105469 136.488281 " fill-opacity="1" fill-rule="nonzero"/></g></svg>